<svg xmlns="http://www.w3.org/2000/svg" viewBox="0 0 100 100" preserveAspectRatio="xMidYMid" width="78" height="78" style="shape-rendering: auto; display: block; background: transparent;" xmlns:xlink="http://www.w3.org/1999/xlink"><g><g transform="rotate(0 50 50)">
  <rect fill="#fe718d" height="12" width="7" ry="6" rx="3.5" y="27" x="46.5">
    <animate repeatCount="indefinite" begin="-1.6581632653061222s" dur="1.7857142857142856s" keyTimes="0;1" values="1;0" attributeName="opacity"></animate>
  </rect>
</g><g transform="rotate(25.714285714285715 50 50)">
  <rect fill="#f47e60" height="12" width="7" ry="6" rx="3.5" y="27" x="46.5">
    <animate repeatCount="indefinite" begin="-1.530612244897959s" dur="1.7857142857142856s" keyTimes="0;1" values="1;0" attributeName="opacity"></animate>
  </rect>
</g><g transform="rotate(51.42857142857143 50 50)">
  <rect fill="#f8b26a" height="12" width="7" ry="6" rx="3.5" y="27" x="46.5">
    <animate repeatCount="indefinite" begin="-1.4030612244897958s" dur="1.7857142857142856s" keyTimes="0;1" values="1;0" attributeName="opacity"></animate>
  </rect>
</g><g transform="rotate(77.14285714285714 50 50)">
  <rect fill="#abbd81" height="12" width="7" ry="6" rx="3.5" y="27" x="46.5">
    <animate repeatCount="indefinite" begin="-1.2755102040816326s" dur="1.7857142857142856s" keyTimes="0;1" values="1;0" attributeName="opacity"></animate>
  </rect>
</g><g transform="rotate(102.85714285714286 50 50)">
  <rect fill="#849b87" height="12" width="7" ry="6" rx="3.5" y="27" x="46.5">
    <animate repeatCount="indefinite" begin="-1.1479591836734693s" dur="1.7857142857142856s" keyTimes="0;1" values="1;0" attributeName="opacity"></animate>
  </rect>
</g><g transform="rotate(128.57142857142858 50 50)">
  <rect fill="#6492ac" height="12" width="7" ry="6" rx="3.5" y="27" x="46.5">
    <animate repeatCount="indefinite" begin="-1.020408163265306s" dur="1.7857142857142856s" keyTimes="0;1" values="1;0" attributeName="opacity"></animate>
  </rect>
</g><g transform="rotate(154.28571428571428 50 50)">
  <rect fill="#637cb5" height="12" width="7" ry="6" rx="3.5" y="27" x="46.5">
    <animate repeatCount="indefinite" begin="-0.8928571428571428s" dur="1.7857142857142856s" keyTimes="0;1" values="1;0" attributeName="opacity"></animate>
  </rect>
</g><g transform="rotate(180 50 50)">
  <rect fill="#6a63b6" height="12" width="7" ry="6" rx="3.5" y="27" x="46.5">
    <animate repeatCount="indefinite" begin="-0.7653061224489796s" dur="1.7857142857142856s" keyTimes="0;1" values="1;0" attributeName="opacity"></animate>
  </rect>
</g><g transform="rotate(205.71428571428572 50 50)">
  <rect fill="#fe718d" height="12" width="7" ry="6" rx="3.5" y="27" x="46.5">
    <animate repeatCount="indefinite" begin="-0.6377551020408163s" dur="1.7857142857142856s" keyTimes="0;1" values="1;0" attributeName="opacity"></animate>
  </rect>
</g><g transform="rotate(231.42857142857142 50 50)">
  <rect fill="#f47e60" height="12" width="7" ry="6" rx="3.5" y="27" x="46.5">
    <animate repeatCount="indefinite" begin="-0.510204081632653s" dur="1.7857142857142856s" keyTimes="0;1" values="1;0" attributeName="opacity"></animate>
  </rect>
</g><g transform="rotate(257.14285714285717 50 50)">
  <rect fill="#f8b26a" height="12" width="7" ry="6" rx="3.5" y="27" x="46.5">
    <animate repeatCount="indefinite" begin="-0.3826530612244898s" dur="1.7857142857142856s" keyTimes="0;1" values="1;0" attributeName="opacity"></animate>
  </rect>
</g><g transform="rotate(282.85714285714283 50 50)">
  <rect fill="#abbd81" height="12" width="7" ry="6" rx="3.5" y="27" x="46.5">
    <animate repeatCount="indefinite" begin="-0.2551020408163265s" dur="1.7857142857142856s" keyTimes="0;1" values="1;0" attributeName="opacity"></animate>
  </rect>
</g><g transform="rotate(308.57142857142856 50 50)">
  <rect fill="#849b87" height="12" width="7" ry="6" rx="3.5" y="27" x="46.5">
    <animate repeatCount="indefinite" begin="-0.12755102040816324s" dur="1.7857142857142856s" keyTimes="0;1" values="1;0" attributeName="opacity"></animate>
  </rect>
</g><g transform="rotate(334.2857142857143 50 50)">
  <rect fill="#6492ac" height="12" width="7" ry="6" rx="3.5" y="27" x="46.5">
    <animate repeatCount="indefinite" begin="0s" dur="1.7857142857142856s" keyTimes="0;1" values="1;0" attributeName="opacity"></animate>
  </rect>
</g><g></g></g><!-- [ldio] generated by https://loading.io --></svg>